<?xml version="1.0" encoding="iso-8859-1"?>
<!-- Generator: Adobe Illustrator 19.0.0, SVG Export Plug-In . SVG Version: 6.00 Build 0)  -->
<svg version="1.1" id="Capa_1" xmlns="http://www.w3.org/2000/svg" xmlns:xlink="http://www.w3.org/1999/xlink" x="0px" y="0px"
	 viewBox="0 0 512 512" style="enable-background:new 0 0 512 512;" xml:space="preserve">
<g>
	<g>
		<path d="M330.667,0H181.333c-41.173,0-74.667,33.493-74.667,74.667v362.667c0,41.173,33.493,74.667,74.667,74.667h149.333
			c41.173,0,74.667-33.493,74.667-74.667V74.667C405.333,33.493,371.84,0,330.667,0z M384,437.333
			c0,29.397-23.936,53.333-53.333,53.333H181.333c-29.397,0-53.333-23.936-53.333-53.333V74.667
			c0-29.397,23.936-53.333,53.333-53.333h149.333c29.397,0,53.333,23.936,53.333,53.333V437.333z"/>
	</g>
</g>
<g>
	<g>
		<path d="M394.667,85.333H117.333c-5.888,0-10.667,4.779-10.667,10.667s4.779,10.667,10.667,10.667h277.333
			c5.888,0,10.667-4.779,10.667-10.667S400.555,85.333,394.667,85.333z"/>
	</g>
</g>
<g>
	<g>
		<path d="M394.667,384H117.333c-5.888,0-10.667,4.779-10.667,10.667s4.779,10.667,10.667,10.667h277.333
			c5.888,0,10.667-4.779,10.667-10.667S400.555,384,394.667,384z"/>
	</g>
</g>
<g>
	<g>
		<circle cx="256" cy="448" r="21.333"/>
	</g>
</g>
<g>
	<g>
		<path d="M288,42.667h-64c-5.888,0-10.667,4.779-10.667,10.667S218.112,64,224,64h64c5.888,0,10.667-4.779,10.667-10.667
			S293.888,42.667,288,42.667z"/>
	</g>
</g>
<g>
	<g>
		<path d="M331.093,42.667h-0.213c-5.888,0-10.56,4.779-10.56,10.667S325.205,64,331.093,64s10.667-4.779,10.667-10.667
			S336.981,42.667,331.093,42.667z"/>
	</g>
</g>
<g>
</g>
<g>
</g>
<g>
</g>
<g>
</g>
<g>
</g>
<g>
</g>
<g>
</g>
<g>
</g>
<g>
</g>
<g>
</g>
<g>
</g>
<g>
</g>
<g>
</g>
<g>
</g>
<g>
</g>
</svg>
